# xmcd CD database file generated by LOLA_Freedb v0.9beta0
# 
# Track frame offsets:
#      150
#      10500
#      28454
#      37601
#      51122
#      63031
#      63032
#      75633
# 
# Disc length: 1210 seconds
# 
# Revision: 0 
# Processed by: cddbd v1.5.2PL0 Copyright (c) Steve Scherf et al.
# Submitted via: LOLA_Freedb v0.9beta0
# 
DISCID=5004b808
DTITLE=J.D. Sumner And The Stamps - Light And Lively
DYEAR=1991
DGENRE=
TTITLE0=J.D. Sumner And The Stamps - So High
TTITLE1=Just A Little Talk With Jesus
TTITLE2=I'm Happy For The Lord Is Mine
TTITLE3=I'll Tell It
TTITLE4=I've Heard About A City
TTITLE5=I Fell Like Traveling On
TTITLE6=Sho' Do Need Him Now
TTITLE7=Oh Rock Of Ages
EXTD=
EXTT0=
EXTT1=
EXTT2=
EXTT3=
EXTT4=
EXTT5=
EXTT6=
EXTT7=
PLAYORDER=
